<?xml version="1.0" encoding="utf-8"?>
<!-- Generator: Adobe Illustrator 15.1.0, SVG Export Plug-In . SVG Version: 6.00 Build 0)  -->
<!DOCTYPE svg PUBLIC "-//W3C//DTD SVG 1.1//EN" "http://www.w3.org/Graphics/SVG/1.1/DTD/svg11.dtd">
<svg version="1.1" id="workstep" xmlns="http://www.w3.org/2000/svg" xmlns:xlink="http://www.w3.org/1999/xlink" x="0px" y="0px"
	 width="421.3px" height="499.2px" viewBox="0 0 421.3 499.2" enable-background="new 0 0 421.3 499.2" xml:space="preserve">
<path fill="#3C3C3B" d="M194.5,201.7l-40.1-40.1c-3.7-3.7-3.7-9.8,0-13.6s9.8-3.7,13.6,0l26.5,26.5l58.7-58.7
	c3.7-3.7,9.8-3.7,13.6,0c3.7,3.7,3.7,9.8,0,13.6L194.5,201.7z"/>
<g>
	<g>
		<path fill="#3C3C3B" d="M349.9,339.9h-62.7c-5.3,0-9.6-4.3-9.6-9.6s4.3-9.6,9.6-9.6h62.7c5.3,0,9.6,4.3,9.6,9.6
			S355.2,339.9,349.9,339.9z"/>
		<path fill="#3C3C3B" d="M349.9,271.2H62.2c-5.3,0-9.6-4.3-9.6-9.6s4.3-9.6,9.6-9.6h287.7c5.3,0,9.6,4.3,9.6,9.6
			S355.2,271.2,349.9,271.2z"/>
		<path fill="#3C3C3B" d="M246.7,339.9H62.2c-5.3,0-9.6-4.3-9.6-9.6s4.3-9.6,9.6-9.6h184.6c5.3,0,9.6,4.3,9.6,9.6
			S252.1,339.9,246.7,339.9z"/>
	</g>
</g>
<path fill="#3C3C3B" d="M402.3,499.2H19c-10.5,0-19-9.4-19-20.8V20.9C0,9.4,8.5,0,19,0h383.2c10.5,0,19,9.4,19,20.9v457.5
	C421.3,489.8,412.7,499.2,402.3,499.2z M19.6,480h382c0.2-0.3,0.4-0.8,0.4-1.7V20.9c0-0.8-0.2-1.4-0.4-1.6h-382
	c-0.2,0.3-0.4,0.8-0.4,1.6v457.5C19.2,479.2,19.4,479.7,19.6,480z"/>
</svg>
